STARTFONT 2.1
FONT -Monotype-Rockwell-Regular-R-Normal--14-140-72-72-P-65-iso8859-1
SIZE 14 72 72
FONTBOUNDINGBOX 16 17 -1 -3

STARTPROPERTIES 22
FOUNDRY "Monotype"
FAMILY_NAME "Rockwell"
WEIGHT_NAME "Regular"
SLANT "R"
SETWIDTH_NAME "Normal"
ADD_STYLE_NAME ""
PIXEL_SIZE 14
POINT_SIZE 140
RESOLUTION_X 72
RESOLUTION_Y 72
SPACING "P"
AVERAGE_WIDTH 65
CHARSET_REGISTRY "iso8859"
CHARSET_ENCODING "1"
COPYRIGHT "Copyright (c) 1996 Monotype Typography Ltd."
CAP_HEIGHT 11
X_HEIGHT 8
WEIGHT 10
QUAD_WIDTH 9
DEFAULT_CHAR 32
FONT_DESCENT 3
FONT_ASCENT 14
ENDPROPERTIES

CHARS 191

STARTCHAR space
ENCODING 32
SWIDTH 250 0
DWIDTH 4 0
BBX 0 0 0 0
BITMAP
ENDCHAR

STARTCHAR exclam
ENCODING 33
SWIDTH 292 0
DWIDTH 4 0
BBX 1 10 1 0
BITMAP
80
80
80
80
80
80
80
00
80
80
ENDCHAR

STARTCHAR quotedbl
ENCODING 34
SWIDTH 406 0
DWIDTH 6 0
BBX 4 4 1 6
BITMAP
90
90
90
90
ENDCHAR

STARTCHAR numbersign
ENCODING 35
SWIDTH 668 0
DWIDTH 10 0
BBX 8 11 1 0
BITMAP
12
12
12
FF
24
24
24
FF
48
48
48
ENDCHAR

STARTCHAR dollar
ENCODING 36
SWIDTH 542 0
DWIDTH 8 0
BBX 6 12 1 -1
BITMAP
28
78
AC
AC
68
28
38
2C
AC
AC
78
28
ENDCHAR

STARTCHAR percent
ENCODING 37
SWIDTH 969 0
DWIDTH 15 0
BBX 12 10 1 0
BITMAP
6020
9040
9080
9100
6200
0460
0890
1090
2090
4060
ENDCHAR

STARTCHAR ampersand
ENCODING 38
SWIDTH 677 0
DWIDTH 10 0
BBX 9 10 1 0
BITMAP
1800
2400
2400
1800
3000
5380
8900
8600
8C00
7380
ENDCHAR

STARTCHAR quoteright
ENCODING 39
SWIDTH 292 0
DWIDTH 4 0
BBX 2 4 1 6
BITMAP
40
40
40
80
ENDCHAR

STARTCHAR parenleft
ENCODING 40
SWIDTH 375 0
DWIDTH 6 0
BBX 4 13 2 -3
BITMAP
10
20
40
40
80
80
80
80
80
40
40
20
10
ENDCHAR

STARTCHAR parenright
ENCODING 41
SWIDTH 375 0
DWIDTH 6 0
BBX 4 13 0 -3
BITMAP
80
40
20
20
10
10
10
10
10
20
20
40
80
ENDCHAR

STARTCHAR asterisk
ENCODING 42
SWIDTH 521 0
DWIDTH 8 0
BBX 7 6 0 4
BITMAP
10
92
7C
38
28
44
ENDCHAR

STARTCHAR plus
ENCODING 43
SWIDTH 667 0
DWIDTH 10 0
BBX 7 7 1 1
BITMAP
10
10
10
FE
10
10
10
ENDCHAR

STARTCHAR comma
ENCODING 44
SWIDTH 292 0
DWIDTH 4 0
BBX 2 4 0 -2
BITMAP
40
40
40
80
ENDCHAR

STARTCHAR minus
ENCODING 45
SWIDTH 667 0
DWIDTH 10 0
BBX 8 1 1 4
BITMAP
FF
ENDCHAR

STARTCHAR period
ENCODING 46
SWIDTH 292 0
DWIDTH 4 0
BBX 1 2 1 0
BITMAP
80
80
ENDCHAR

STARTCHAR slash
ENCODING 47
SWIDTH 438 0
DWIDTH 7 0
BBX 6 11 0 -1
BITMAP
04
04
08
08
10
10
20
20
40
40
80
ENDCHAR

STARTCHAR zero
ENCODING 48
SWIDTH 542 0
DWIDTH 8 0
BBX 6 10 1 0
BITMAP
30
48
84
84
84
84
84
84
48
30
ENDCHAR

STARTCHAR one
ENCODING 49
SWIDTH 542 0
DWIDTH 8 0
BBX 3 10 2 0
BITMAP
C0
40
40
40
40
40
40
40
40
E0
ENDCHAR

STARTCHAR two
ENCODING 50
SWIDTH 542 0
DWIDTH 8 0
BBX 6 10 1 0
BITMAP
78
84
84
04
08
10
20
44
84
FC
ENDCHAR

STARTCHAR three
ENCODING 51
SWIDTH 542 0
DWIDTH 8 0
BBX 6 10 1 0
BITMAP
78
84
84
04
38
04
04
84
84
78
ENDCHAR

STARTCHAR four
ENCODING 52
SWIDTH 542 0
DWIDTH 8 0
BBX 7 10 1 0
BITMAP
08
18
28
28
48
88
FE
08
08
1C
ENDCHAR

STARTCHAR five
ENCODING 53
SWIDTH 542 0
DWIDTH 8 0
BBX 6 10 1 0
BITMAP
FC
84
80
B8
C4
04
04
84
84
78
ENDCHAR

STARTCHAR six
ENCODING 54
SWIDTH 542 0
DWIDTH 8 0
BBX 6 10 1 0
BITMAP
38
44
84
80
B8
C4
84
84
84
78
ENDCHAR

STARTCHAR seven
ENCODING 55
SWIDTH 542 0
DWIDTH 8 0
BBX 6 10 1 0
BITMAP
FC
88
88
10
10
10
20
20
20
70
ENDCHAR

STARTCHAR eight
ENCODING 56
SWIDTH 542 0
DWIDTH 8 0
BBX 6 10 1 0
BITMAP
78
84
84
84
78
84
84
84
84
78
ENDCHAR

STARTCHAR nine
ENCODING 57
SWIDTH 542 0
DWIDTH 8 0
BBX 6 10 1 0
BITMAP
78
84
84
84
8C
74
04
84
88
70
ENDCHAR

STARTCHAR colon
ENCODING 58
SWIDTH 292 0
DWIDTH 4 0
BBX 1 7 1 0
BITMAP
80
80
00
00
00
80
80
ENDCHAR

STARTCHAR semicolon
ENCODING 59
SWIDTH 292 0
DWIDTH 4 0
BBX 2 9 0 -2
BITMAP
40
40
00
00
00
40
40
40
80
ENDCHAR

STARTCHAR less
ENCODING 60
SWIDTH 667 0
DWIDTH 10 0
BBX 8 7 1 2
BITMAP
03
0C
30
C0
30
0C
03
ENDCHAR

STARTCHAR equal
ENCODING 61
SWIDTH 667 0
DWIDTH 10 0
BBX 8 4 1 3
BITMAP
FF
00
00
FF
ENDCHAR

STARTCHAR greater
ENCODING 62
SWIDTH 667 0
DWIDTH 10 0
BBX 8 7 1 2
BITMAP
C0
30
0C
03
0C
30
C0
ENDCHAR

STARTCHAR question
ENCODING 63
SWIDTH 469 0
DWIDTH 7 0
BBX 5 10 1 0
BITMAP
70
88
88
08
30
20
20
00
20
20
ENDCHAR

STARTCHAR at
ENCODING 64
SWIDTH 1010 0
DWIDTH 15 0
BBX 13 13 1 -3
BITMAP
0FC0
3020
4010
4748
8888
8888
9090
9110
9120
4EC0
4008
3030
0FC0
ENDCHAR

STARTCHAR A
ENCODING 65
SWIDTH 698 0
DWIDTH 10 0
BBX 10 10 0 0
BITMAP
1E00
0C00
1200
1200
2100
3F00
2100
4080
4080
E1C0
ENDCHAR

STARTCHAR B
ENCODING 66
SWIDTH 583 0
DWIDTH 9 0
BBX 7 10 1 0
BITMAP
F8
44
44
44
78
44
42
42
42
FC
ENDCHAR

STARTCHAR C
ENCODING 67
SWIDTH 760 0
DWIDTH 11 0
BBX 9 10 1 0
BITMAP
1E80
2180
4080
8000
8000
8000
8000
4080
2100
1E00
ENDCHAR

STARTCHAR D
ENCODING 68
SWIDTH 729 0
DWIDTH 11 0
BBX 9 10 1 0
BITMAP
FE00
4100
4080
4080
4080
4080
4080
4080
4100
FE00
ENDCHAR

STARTCHAR E
ENCODING 69
SWIDTH 625 0
DWIDTH 9 0
BBX 7 10 1 0
BITMAP
FE
42
42
40
7C
40
40
42
42
FE
ENDCHAR

STARTCHAR F
ENCODING 70
SWIDTH 552 0
DWIDTH 8 0
BBX 6 10 1 0
BITMAP
FC
44
44
40
78
40
40
40
40
E0
ENDCHAR

STARTCHAR G
ENCODING 71
SWIDTH 802 0
DWIDTH 12 0
BBX 9 10 1 0
BITMAP
1E80
2180
4080
8000
8000
8000
8380
4080
2100
1E00
ENDCHAR

STARTCHAR H
ENCODING 72
SWIDTH 708 0
DWIDTH 11 0
BBX 9 10 1 0
BITMAP
E380
4100
4100
4100
7F00
4100
4100
4100
4100
E380
ENDCHAR

STARTCHAR I
ENCODING 73
SWIDTH 313 0
DWIDTH 5 0
BBX 3 10 1 0
BITMAP
E0
40
40
40
40
40
40
40
40
E0
ENDCHAR

STARTCHAR J
ENCODING 74
SWIDTH 313 0
DWIDTH 5 0
BBX 4 13 0 -3
BITMAP
70
20
20
20
20
20
20
20
20
20
20
20
C0
ENDCHAR

STARTCHAR K
ENCODING 75
SWIDTH 625 0
DWIDTH 9 0
BBX 9 10 1 0
BITMAP
E700
4400
4800
5000
6000
5000
4800
4400
4200
E780
ENDCHAR

STARTCHAR L
ENCODING 76
SWIDTH 521 0
DWIDTH 8 0
BBX 6 10 1 0
BITMAP
E0
40
40
40
40
44
44
44
44
FC
ENDCHAR

STARTCHAR M
ENCODING 77
SWIDTH 875 0
DWIDTH 13 0
BBX 11 10 1 0
BITMAP
E0E0
60C0
5140
5140
5140
4A40
4A40
4A40
4440
E4E0
ENDCHAR

STARTCHAR N
ENCODING 78
SWIDTH 719 0
DWIDTH 11 0
BBX 9 10 1 0
BITMAP
C380
6100
5100
5100
4900
4900
4500
4300
4300
E100
ENDCHAR

STARTCHAR O
ENCODING 79
SWIDTH 802 0
DWIDTH 12 0
BBX 10 10 1 0
BITMAP
1E00
2100
4080
8040
8040
8040
8040
4080
2100
1E00
ENDCHAR

STARTCHAR P
ENCODING 80
SWIDTH 573 0
DWIDTH 9 0
BBX 7 10 1 0
BITMAP
FC
42
42
42
42
7C
40
40
40
E0
ENDCHAR

STARTCHAR Q
ENCODING 81
SWIDTH 802 0
DWIDTH 12 0
BBX 10 12 1 -2
BITMAP
1E00
2100
4080
8040
8040
8040
8040
4080
2100
1E00
1C00
2300
ENDCHAR

STARTCHAR R
ENCODING 82
SWIDTH 604 0
DWIDTH 9 0
BBX 8 10 1 0
BITMAP
FC
42
42
42
7C
48
48
44
44
E3
ENDCHAR

STARTCHAR S
ENCODING 83
SWIDTH 531 0
DWIDTH 8 0
BBX 6 10 1 0
BITMAP
74
8C
84
80
60
18
04
84
C4
B8
ENDCHAR

STARTCHAR T
ENCODING 84
SWIDTH 573 0
DWIDTH 9 0
BBX 7 10 1 0
BITMAP
FE
92
92
92
10
10
10
10
10
38
ENDCHAR

STARTCHAR U
ENCODING 85
SWIDTH 677 0
DWIDTH 10 0
BBX 8 10 1 0
BITMAP
E7
42
42
42
42
42
42
42
42
3C
ENDCHAR

STARTCHAR V
ENCODING 86
SWIDTH 708 0
DWIDTH 11 0
BBX 9 10 1 0
BITMAP
E380
4100
4100
2200
2200
2200
1400
1400
0800
0800
ENDCHAR

STARTCHAR W
ENCODING 87
SWIDTH 1000 0
DWIDTH 15 0
BBX 15 10 0 0
BITMAP
E38E
4104
4104
2288
2288
2288
1450
1450
0820
0820
ENDCHAR

STARTCHAR X
ENCODING 88
SWIDTH 656 0
DWIDTH 10 0
BBX 8 10 1 0
BITMAP
E7
42
24
24
18
18
24
24
42
E7
ENDCHAR

STARTCHAR Y
ENCODING 89
SWIDTH 646 0
DWIDTH 10 0
BBX 9 10 0 0
BITMAP
E380
4100
2200
1400
0800
0800
0800
0800
0800
1C00
ENDCHAR

STARTCHAR Z
ENCODING 90
SWIDTH 563 0
DWIDTH 8 0
BBX 6 10 1 0
BITMAP
FC
84
88
08
10
20
20
44
84
FC
ENDCHAR

STARTCHAR bracketleft
ENCODING 91
SWIDTH 375 0
DWIDTH 6 0
BBX 3 13 2 -3
BITMAP
E0
80
80
80
80
80
80
80
80
80
80
80
E0
ENDCHAR

STARTCHAR backslash
ENCODING 92
SWIDTH 438 0
DWIDTH 7 0
BBX 6 11 0 -1
BITMAP
80
40
40
20
20
10
10
08
08
04
04
ENDCHAR

STARTCHAR bracketright
ENCODING 93
SWIDTH 375 0
DWIDTH 6 0
BBX 3 13 1 -3
BITMAP
E0
20
20
20
20
20
20
20
20
20
20
20
E0
ENDCHAR

STARTCHAR asciicircum
ENCODING 94
SWIDTH 469 0
DWIDTH 7 0
BBX 7 6 0 4
BITMAP
10
28
28
44
44
82
ENDCHAR

STARTCHAR underscore
ENCODING 95
SWIDTH 500 0
DWIDTH 8 0
BBX 8 1 0 -2
BITMAP
FF
ENDCHAR

STARTCHAR quoteleft
ENCODING 96
SWIDTH 292 0
DWIDTH 4 0
BBX 2 4 1 6
BITMAP
40
80
80
80
ENDCHAR

STARTCHAR a
ENCODING 97
SWIDTH 531 0
DWIDTH 8 0
BBX 6 7 1 0
BITMAP
70
88
08
78
88
98
6C
ENDCHAR

STARTCHAR b
ENCODING 98
SWIDTH 646 0
DWIDTH 10 0
BBX 8 10 1 0
BITMAP
C0
40
40
5C
62
41
41
41
62
DC
ENDCHAR

STARTCHAR c
ENCODING 99
SWIDTH 521 0
DWIDTH 8 0
BBX 6 7 1 0
BITMAP
3C
44
84
80
80
44
38
ENDCHAR

STARTCHAR d
ENCODING 100
SWIDTH 625 0
DWIDTH 9 0
BBX 7 10 1 0
BITMAP
0C
04
04
34
4C
84
84
84
4C
36
ENDCHAR

STARTCHAR e
ENCODING 101
SWIDTH 573 0
DWIDTH 9 0
BBX 7 7 1 0
BITMAP
38
44
82
FE
80
42
3C
ENDCHAR

STARTCHAR f
ENCODING 102
SWIDTH 292 0
DWIDTH 4 0
BBX 4 10 0 0
BITMAP
20
50
40
E0
40
40
40
40
40
E0
ENDCHAR

STARTCHAR g
ENCODING 103
SWIDTH 625 0
DWIDTH 9 0
BBX 7 10 1 -3
BITMAP
36
4C
84
84
84
4C
34
04
88
70
ENDCHAR

STARTCHAR h
ENCODING 104
SWIDTH 573 0
DWIDTH 9 0
BBX 7 10 1 0
BITMAP
C0
40
40
58
64
44
44
44
44
E6
ENDCHAR

STARTCHAR i
ENCODING 105
SWIDTH 292 0
DWIDTH 4 0
BBX 3 11 0 0
BITMAP
40
40
00
00
C0
40
40
40
40
40
E0
ENDCHAR

STARTCHAR j
ENCODING 106
SWIDTH 292 0
DWIDTH 4 0
BBX 3 14 -1 -3
BITMAP
20
20
00
00
60
20
20
20
20
20
20
20
20
C0
ENDCHAR

STARTCHAR k
ENCODING 107
SWIDTH 573 0
DWIDTH 9 0
BBX 7 10 1 0
BITMAP
C0
40
40
46
48
50
60
50
48
E6
ENDCHAR

STARTCHAR l
ENCODING 108
SWIDTH 292 0
DWIDTH 4 0
BBX 3 10 0 0
BITMAP
C0
40
40
40
40
40
40
40
40
E0
ENDCHAR

STARTCHAR m
ENCODING 109
SWIDTH 865 0
DWIDTH 13 0
BBX 11 7 1 0
BITMAP
DD80
6640
4440
4440
4440
4440
E660
ENDCHAR

STARTCHAR n
ENCODING 110
SWIDTH 573 0
DWIDTH 9 0
BBX 7 7 1 0
BITMAP
D8
64
44
44
44
44
E6
ENDCHAR

STARTCHAR o
ENCODING 111
SWIDTH 573 0
DWIDTH 9 0
BBX 7 7 1 0
BITMAP
38
44
82
82
82
44
38
ENDCHAR

STARTCHAR p
ENCODING 112
SWIDTH 625 0
DWIDTH 9 0
BBX 7 10 1 -3
BITMAP
D8
64
42
42
42
64
58
40
40
E0
ENDCHAR

STARTCHAR q
ENCODING 113
SWIDTH 615 0
DWIDTH 9 0
BBX 7 10 1 -3
BITMAP
36
4C
84
84
84
4C
34
04
04
0E
ENDCHAR

STARTCHAR r
ENCODING 114
SWIDTH 417 0
DWIDTH 6 0
BBX 5 7 1 0
BITMAP
D8
60
40
40
40
40
E0
ENDCHAR

STARTCHAR s
ENCODING 115
SWIDTH 458 0
DWIDTH 7 0
BBX 5 7 1 0
BITMAP
78
88
80
70
08
88
F0
ENDCHAR

STARTCHAR t
ENCODING 116
SWIDTH 302 0
DWIDTH 5 0
BBX 3 10 1 0
BITMAP
40
40
40
E0
40
40
40
40
40
20
ENDCHAR

STARTCHAR u
ENCODING 117
SWIDTH 563 0
DWIDTH 8 0
BBX 7 7 0 0
BITMAP
CC
44
44
44
44
4C
36
ENDCHAR

STARTCHAR v
ENCODING 118
SWIDTH 542 0
DWIDTH 8 0
BBX 7 7 0 0
BITMAP
EE
44
44
28
28
10
10
ENDCHAR

STARTCHAR w
ENCODING 119
SWIDTH 771 0
DWIDTH 12 0
BBX 11 7 0 0
BITMAP
EEE0
4440
4440
2A80
2A80
1100
1100
ENDCHAR

STARTCHAR x
ENCODING 120
SWIDTH 552 0
DWIDTH 8 0
BBX 7 7 0 0
BITMAP
EE
44
28
10
28
44
EE
ENDCHAR

STARTCHAR y
ENCODING 121
SWIDTH 563 0
DWIDTH 8 0
BBX 7 10 0 -3
BITMAP
EE
44
44
28
28
10
10
10
20
E0
ENDCHAR

STARTCHAR z
ENCODING 122
SWIDTH 448 0
DWIDTH 7 0
BBX 5 7 1 0
BITMAP
F8
88
10
20
40
88
F8
ENDCHAR

STARTCHAR braceleft
ENCODING 123
SWIDTH 333 0
DWIDTH 5 0
BBX 5 13 0 -3
BITMAP
18
20
20
20
20
20
C0
20
20
20
20
20
18
ENDCHAR

STARTCHAR bar
ENCODING 124
SWIDTH 527 0
DWIDTH 8 0
BBX 1 13 3 -3
BITMAP
80
80
80
80
80
80
80
80
80
80
80
80
80
ENDCHAR

STARTCHAR braceright
ENCODING 125
SWIDTH 333 0
DWIDTH 5 0
BBX 5 13 0 -3
BITMAP
C0
20
20
20
20
20
18
20
20
20
20
20
C0
ENDCHAR

STARTCHAR asciitilde
ENCODING 126
SWIDTH 583 0
DWIDTH 9 0
BBX 7 2 1 4
BITMAP
72
9C
ENDCHAR

STARTCHAR space
ENCODING 160
SWIDTH 250 0
DWIDTH 4 0
BBX 0 0 0 0
BITMAP
ENDCHAR

STARTCHAR exclamdown
ENCODING 161
SWIDTH 292 0
DWIDTH 4 0
BBX 1 10 2 -3
BITMAP
80
80
00
80
80
80
80
80
80
80
ENDCHAR

STARTCHAR cent
ENCODING 162
SWIDTH 521 0
DWIDTH 8 0
BBX 6 13 1 -3
BITMAP
08
08
08
3C
54
94
90
A0
64
38
20
40
40
ENDCHAR

STARTCHAR sterling
ENCODING 163
SWIDTH 542 0
DWIDTH 8 0
BBX 8 10 0 0
BITMAP
1C
22
20
10
7C
10
10
51
B1
6E
ENDCHAR

STARTCHAR currency
ENCODING 164
SWIDTH 667 0
DWIDTH 10 0
BBX 7 7 1 2
BITMAP
BA
44
82
82
82
44
BA
ENDCHAR

STARTCHAR yen
ENCODING 165
SWIDTH 646 0
DWIDTH 10 0
BBX 9 10 0 0
BITMAP
E380
4100
2200
FF80
0800
FF80
0800
0800
0800
3E00
ENDCHAR

STARTCHAR brokenbar
ENCODING 166
SWIDTH 527 0
DWIDTH 8 0
BBX 1 13 3 -3
BITMAP
80
80
80
80
80
80
00
80
80
80
80
80
80
ENDCHAR

STARTCHAR section
ENCODING 167
SWIDTH 479 0
DWIDTH 7 0
BBX 6 13 0 -3
BITMAP
38
44
44
60
90
88
84
44
24
18
88
88
70
ENDCHAR

STARTCHAR dieresis
ENCODING 168
SWIDTH 333 0
DWIDTH 5 0
BBX 4 2 0 8
BITMAP
90
90
ENDCHAR

STARTCHAR copyright
ENCODING 169
SWIDTH 740 0
DWIDTH 11 0
BBX 10 10 0 0
BITMAP
3F00
4080
8E40
9240
9040
9040
9240
8C40
4080
3F00
ENDCHAR

STARTCHAR ordfeminine
ENCODING 170
SWIDTH 344 0
DWIDTH 5 0
BBX 5 5 0 5
BITMAP
E0
10
70
B0
58
ENDCHAR

STARTCHAR guillemotleft
ENCODING 171
SWIDTH 479 0
DWIDTH 7 0
BBX 7 7 0 0
BITMAP
12
24
48
90
48
24
12
ENDCHAR

STARTCHAR logicalnot
ENCODING 172
SWIDTH 667 0
DWIDTH 10 0
BBX 8 5 1 2
BITMAP
FF
01
01
01
01
ENDCHAR

STARTCHAR hyphen
ENCODING 173
SWIDTH 354 0
DWIDTH 5 0
BBX 5 1 0 3
BITMAP
F8
ENDCHAR

STARTCHAR registered
ENCODING 174
SWIDTH 740 0
DWIDTH 11 0
BBX 10 10 0 0
BITMAP
3F00
4080
9C40
9240
9240
9C40
9240
9140
4080
3F00
ENDCHAR

STARTCHAR macron
ENCODING 175
SWIDTH 333 0
DWIDTH 5 0
BBX 5 1 0 9
BITMAP
F8
ENDCHAR

STARTCHAR degree
ENCODING 176
SWIDTH 396 0
DWIDTH 6 0
BBX 5 5 0 5
BITMAP
70
88
88
88
70
ENDCHAR

STARTCHAR plusminus
ENCODING 177
SWIDTH 667 0
DWIDTH 10 0
BBX 7 10 2 0
BITMAP
10
10
10
FE
10
10
10
00
00
FE
ENDCHAR

STARTCHAR twosuperior
ENCODING 178
SWIDTH 333 0
DWIDTH 5 0
BBX 4 5 0 5
BITMAP
60
90
20
50
F0
ENDCHAR

STARTCHAR threesuperior
ENCODING 179
SWIDTH 333 0
DWIDTH 5 0
BBX 4 5 0 5
BITMAP
60
90
20
90
60
ENDCHAR

STARTCHAR acute
ENCODING 180
SWIDTH 333 0
DWIDTH 5 0
BBX 3 3 1 7
BITMAP
20
40
80
ENDCHAR

STARTCHAR mu
ENCODING 181
SWIDTH 552 0
DWIDTH 8 0
BBX 6 10 1 -3
BITMAP
84
84
84
84
84
CC
B4
80
80
80
ENDCHAR

STARTCHAR paragraph
ENCODING 182
SWIDTH 542 0
DWIDTH 8 0
BBX 8 13 0 -3
BITMAP
3F
72
F2
F2
F2
72
12
12
12
12
12
12
12
ENDCHAR

STARTCHAR periodcentered
ENCODING 183
SWIDTH 292 0
DWIDTH 4 0
BBX 1 2 1 4
BITMAP
80
80
ENDCHAR

STARTCHAR cedilla
ENCODING 184
SWIDTH 333 0
DWIDTH 5 0
BBX 3 3 1 -3
BITMAP
40
20
C0
ENDCHAR

STARTCHAR onesuperior
ENCODING 185
SWIDTH 333 0
DWIDTH 5 0
BBX 3 5 1 5
BITMAP
C0
40
40
40
E0
ENDCHAR

STARTCHAR ordmasculine
ENCODING 186
SWIDTH 375 0
DWIDTH 6 0
BBX 4 5 1 5
BITMAP
60
90
90
90
60
ENDCHAR

STARTCHAR guillemotright
ENCODING 187
SWIDTH 479 0
DWIDTH 7 0
BBX 7 7 0 0
BITMAP
90
48
24
12
24
48
90
ENDCHAR

STARTCHAR onequarter
ENCODING 188
SWIDTH 969 0
DWIDTH 15 0
BBX 11 10 2 0
BITMAP
C040
4080
4100
4200
E400
0840
10C0
2140
41E0
8040
ENDCHAR

STARTCHAR onehalf
ENCODING 189
SWIDTH 969 0
DWIDTH 15 0
BBX 10 10 2 0
BITMAP
C080
4100
4200
4400
E400
0980
1240
2080
4140
83C0
ENDCHAR

STARTCHAR threequarters
ENCODING 190
SWIDTH 969 0
DWIDTH 15 0
BBX 12 10 1 0
BITMAP
6020
9040
2080
9100
6200
0420
0460
08A0
10F0
2020
ENDCHAR

STARTCHAR questiondown
ENCODING 191
SWIDTH 469 0
DWIDTH 7 0
BBX 5 10 1 -3
BITMAP
20
20
00
20
20
60
80
88
88
70
ENDCHAR

STARTCHAR Agrave
ENCODING 192
SWIDTH 698 0
DWIDTH 10 0
BBX 10 14 0 0
BITMAP
1000
0800
0400
0000
1E00
0C00
1200
1200
2100
3F00
2100
4080
4080
E1C0
ENDCHAR

STARTCHAR Aacute
ENCODING 193
SWIDTH 698 0
DWIDTH 10 0
BBX 10 14 0 0
BITMAP
0200
0400
0800
0000
1E00
0C00
1200
1200
2100
3F00
2100
4080
4080
E1C0
ENDCHAR

STARTCHAR Acircumflex
ENCODING 194
SWIDTH 698 0
DWIDTH 10 0
BBX 10 14 0 0
BITMAP
0400
0A00
1100
0000
1E00
0C00
1200
1200
2100
3F00
2100
4080
4080
E1C0
ENDCHAR

STARTCHAR Atilde
ENCODING 195
SWIDTH 698 0
DWIDTH 10 0
BBX 10 13 0 0
BITMAP
1900
2600
0000
1E00
0C00
1200
1200
2100
3F00
2100
4080
4080
E1C0
ENDCHAR

STARTCHAR Adieresis
ENCODING 196
SWIDTH 698 0
DWIDTH 10 0
BBX 10 13 0 0
BITMAP
1200
1200
0000
1E00
0C00
1200
1200
2100
3F00
2100
4080
4080
E1C0
ENDCHAR

STARTCHAR Aring
ENCODING 197
SWIDTH 698 0
DWIDTH 10 0
BBX 10 14 0 0
BITMAP
0C00
1200
1200
0C00
1E00
0C00
1200
1200
2100
3F00
2100
4080
4080
E1C0
ENDCHAR

STARTCHAR AE
ENCODING 198
SWIDTH 938 0
DWIDTH 14 0
BBX 13 10 0 0
BITMAP
0FF8
0508
0908
0900
1FF0
1100
2100
2108
4108
E3F8
ENDCHAR

STARTCHAR Ccedilla
ENCODING 199
SWIDTH 760 0
DWIDTH 11 0
BBX 9 13 1 -3
BITMAP
1E80
2180
4080
8000
8000
8000
8000
4080
2100
1E00
0800
0400
1800
ENDCHAR

STARTCHAR Egrave
ENCODING 200
SWIDTH 625 0
DWIDTH 9 0
BBX 7 14 1 0
BITMAP
20
10
08
00
FE
42
42
40
7C
40
40
42
42
FE
ENDCHAR

STARTCHAR Eacute
ENCODING 201
SWIDTH 625 0
DWIDTH 9 0
BBX 7 14 1 0
BITMAP
04
08
10
00
FE
42
42
40
7C
40
40
42
42
FE
ENDCHAR

STARTCHAR Ecircumflex
ENCODING 202
SWIDTH 625 0
DWIDTH 9 0
BBX 7 14 1 0
BITMAP
10
28
44
00
FE
42
42
40
7C
40
40
42
42
FE
ENDCHAR

STARTCHAR Edieresis
ENCODING 203
SWIDTH 625 0
DWIDTH 9 0
BBX 7 13 1 0
BITMAP
24
24
00
FE
42
42
40
7C
40
40
42
42
FE
ENDCHAR

STARTCHAR Igrave
ENCODING 204
SWIDTH 313 0
DWIDTH 5 0
BBX 3 14 1 0
BITMAP
80
40
20
00
E0
40
40
40
40
40
40
40
40
E0
ENDCHAR

STARTCHAR Iacute
ENCODING 205
SWIDTH 313 0
DWIDTH 5 0
BBX 4 14 1 0
BITMAP
10
20
40
00
E0
40
40
40
40
40
40
40
40
E0
ENDCHAR

STARTCHAR Icircumflex
ENCODING 206
SWIDTH 313 0
DWIDTH 5 0
BBX 5 14 0 0
BITMAP
20
50
88
00
70
20
20
20
20
20
20
20
20
70
ENDCHAR

STARTCHAR Idieresis
ENCODING 207
SWIDTH 313 0
DWIDTH 5 0
BBX 4 13 1 0
BITMAP
90
90
00
E0
40
40
40
40
40
40
40
40
E0
ENDCHAR

STARTCHAR Eth
ENCODING 208
SWIDTH 729 0
DWIDTH 11 0
BBX 9 10 1 0
BITMAP
FE00
4100
4080
4080
F880
4080
4080
4080
4100
FE00
ENDCHAR

STARTCHAR Ntilde
ENCODING 209
SWIDTH 719 0
DWIDTH 11 0
BBX 9 13 1 0
BITMAP
3200
4C00
0000
C380
6100
5100
5100
4900
4900
4500
4300
4300
E100
ENDCHAR

STARTCHAR Ograve
ENCODING 210
SWIDTH 802 0
DWIDTH 12 0
BBX 10 14 1 0
BITMAP
1000
0800
0400
0000
1E00
2100
4080
8040
8040
8040
8040
4080
2100
1E00
ENDCHAR

STARTCHAR Oacute
ENCODING 211
SWIDTH 802 0
DWIDTH 12 0
BBX 10 14 1 0
BITMAP
0200
0400
0800
0000
1E00
2100
4080
8040
8040
8040
8040
4080
2100
1E00
ENDCHAR

STARTCHAR Ocircumflex
ENCODING 212
SWIDTH 802 0
DWIDTH 12 0
BBX 10 14 1 0
BITMAP
0400
0A00
1100
0000
1E00
2100
4080
8040
8040
8040
8040
4080
2100
1E00
ENDCHAR

STARTCHAR Otilde
ENCODING 213
SWIDTH 802 0
DWIDTH 12 0
BBX 10 13 1 0
BITMAP
1900
2600
0000
1E00
2100
4080
8040
8040
8040
8040
4080
2100
1E00
ENDCHAR

STARTCHAR Odieresis
ENCODING 214
SWIDTH 802 0
DWIDTH 12 0
BBX 10 13 1 0
BITMAP
1200
1200
0000
1E00
2100
4080
8040
8040
8040
8040
4080
2100
1E00
ENDCHAR

STARTCHAR multiply
ENCODING 215
SWIDTH 668 0
DWIDTH 10 0
BBX 8 8 1 1
BITMAP
81
42
24
18
18
24
42
81
ENDCHAR

STARTCHAR Oslash
ENCODING 216
SWIDTH 802 0
DWIDTH 12 0
BBX 10 10 1 0
BITMAP
1E40
2180
4180
8240
8440
8840
9040
6080
6100
9E00
ENDCHAR

STARTCHAR Ugrave
ENCODING 217
SWIDTH 677 0
DWIDTH 10 0
BBX 8 14 1 0
BITMAP
20
10
08
00
E7
42
42
42
42
42
42
42
42
3C
ENDCHAR

STARTCHAR Uacute
ENCODING 218
SWIDTH 677 0
DWIDTH 10 0
BBX 8 14 1 0
BITMAP
04
08
10
00
E7
42
42
42
42
42
42
42
42
3C
ENDCHAR

STARTCHAR Ucircumflex
ENCODING 219
SWIDTH 677 0
DWIDTH 10 0
BBX 8 14 1 0
BITMAP
08
14
22
00
E7
42
42
42
42
42
42
42
42
3C
ENDCHAR

STARTCHAR Udieresis
ENCODING 220
SWIDTH 677 0
DWIDTH 10 0
BBX 8 13 1 0
BITMAP
24
24
00
E7
42
42
42
42
42
42
42
42
3C
ENDCHAR

STARTCHAR Yacute
ENCODING 221
SWIDTH 646 0
DWIDTH 10 0
BBX 9 14 0 0
BITMAP
0200
0400
0800
0000
E380
4100
2200
1400
0800
0800
0800
0800
0800
1C00
ENDCHAR

STARTCHAR Thorn
ENCODING 222
SWIDTH 573 0
DWIDTH 9 0
BBX 7 10 1 0
BITMAP
E0
40
5C
62
42
42
62
5C
40
E0
ENDCHAR

STARTCHAR germandbls
ENCODING 223
SWIDTH 646 0
DWIDTH 10 0
BBX 8 10 1 0
BITMAP
3C
42
42
44
4C
42
41
41
42
EC
ENDCHAR

STARTCHAR agrave
ENCODING 224
SWIDTH 531 0
DWIDTH 8 0
BBX 6 11 1 0
BITMAP
40
20
10
00
70
88
08
78
88
98
6C
ENDCHAR

STARTCHAR aacute
ENCODING 225
SWIDTH 531 0
DWIDTH 8 0
BBX 6 11 1 0
BITMAP
08
10
20
00
70
88
08
78
88
98
6C
ENDCHAR

STARTCHAR acircumflex
ENCODING 226
SWIDTH 531 0
DWIDTH 8 0
BBX 6 11 1 0
BITMAP
20
50
88
00
70
88
08
78
88
98
6C
ENDCHAR

STARTCHAR atilde
ENCODING 227
SWIDTH 531 0
DWIDTH 8 0
BBX 6 10 1 0
BITMAP
64
98
00
70
88
08
78
88
98
6C
ENDCHAR

STARTCHAR adieresis
ENCODING 228
SWIDTH 531 0
DWIDTH 8 0
BBX 6 10 1 0
BITMAP
48
48
00
70
88
08
78
88
98
6C
ENDCHAR

STARTCHAR aring
ENCODING 229
SWIDTH 531 0
DWIDTH 8 0
BBX 6 11 1 0
BITMAP
20
50
20
00
70
88
08
78
88
98
6C
ENDCHAR

STARTCHAR ae
ENCODING 230
SWIDTH 885 0
DWIDTH 13 0
BBX 11 7 1 0
BITMAP
7380
8C40
0C20
7FE0
8C00
8C20
73C0
ENDCHAR

STARTCHAR ccedilla
ENCODING 231
SWIDTH 521 0
DWIDTH 8 0
BBX 6 10 1 -3
BITMAP
3C
44
84
80
80
44
38
10
08
30
ENDCHAR

STARTCHAR egrave
ENCODING 232
SWIDTH 573 0
DWIDTH 9 0
BBX 7 11 1 0
BITMAP
40
20
10
00
38
44
82
FE
80
42
3C
ENDCHAR

STARTCHAR eacute
ENCODING 233
SWIDTH 573 0
DWIDTH 9 0
BBX 7 11 1 0
BITMAP
04
08
10
00
38
44
82
FE
80
42
3C
ENDCHAR

STARTCHAR ecircumflex
ENCODING 234
SWIDTH 573 0
DWIDTH 9 0
BBX 7 11 1 0
BITMAP
10
28
44
00
38
44
82
FE
80
42
3C
ENDCHAR

STARTCHAR edieresis
ENCODING 235
SWIDTH 573 0
DWIDTH 9 0
BBX 7 10 1 0
BITMAP
24
24
00
38
44
82
FE
80
42
3C
ENDCHAR

STARTCHAR igrave
ENCODING 236
SWIDTH 292 0
DWIDTH 4 0
BBX 3 11 0 0
BITMAP
80
40
20
00
C0
40
40
40
40
40
E0
ENDCHAR

STARTCHAR iacute
ENCODING 237
SWIDTH 292 0
DWIDTH 4 0
BBX 3 11 0 0
BITMAP
20
40
80
00
C0
40
40
40
40
40
E0
ENDCHAR

STARTCHAR icircumflex
ENCODING 238
SWIDTH 292 0
DWIDTH 4 0
BBX 5 11 -1 0
BITMAP
20
50
88
00
60
20
20
20
20
20
70
ENDCHAR

STARTCHAR idieresis
ENCODING 239
SWIDTH 292 0
DWIDTH 4 0
BBX 3 11 0 0
BITMAP
A0
A0
00
00
C0
40
40
40
40
40
E0
ENDCHAR

STARTCHAR eth
ENCODING 240
SWIDTH 573 0
DWIDTH 9 0
BBX 7 11 1 0
BITMAP
66
18
68
04
3C
46
82
82
82
44
38
ENDCHAR

STARTCHAR ntilde
ENCODING 241
SWIDTH 573 0
DWIDTH 9 0
BBX 7 10 1 0
BITMAP
64
98
00
D8
64
44
44
44
44
E6
ENDCHAR

STARTCHAR ograve
ENCODING 242
SWIDTH 573 0
DWIDTH 9 0
BBX 7 11 1 0
BITMAP
40
20
10
00
38
44
82
82
82
44
38
ENDCHAR

STARTCHAR oacute
ENCODING 243
SWIDTH 573 0
DWIDTH 9 0
BBX 7 11 1 0
BITMAP
08
10
20
00
38
44
82
82
82
44
38
ENDCHAR

STARTCHAR ocircumflex
ENCODING 244
SWIDTH 573 0
DWIDTH 9 0
BBX 7 11 1 0
BITMAP
10
28
44
00
38
44
82
82
82
44
38
ENDCHAR

STARTCHAR otilde
ENCODING 245
SWIDTH 573 0
DWIDTH 9 0
BBX 7 10 1 0
BITMAP
32
4C
00
38
44
82
82
82
44
38
ENDCHAR

STARTCHAR odieresis
ENCODING 246
SWIDTH 573 0
DWIDTH 9 0
BBX 7 10 1 0
BITMAP
24
24
00
38
44
82
82
82
44
38
ENDCHAR

STARTCHAR divide
ENCODING 247
SWIDTH 668 0
DWIDTH 10 0
BBX 7 7 1 1
BITMAP
10
00
00
FE
00
00
10
ENDCHAR

STARTCHAR oslash
ENCODING 248
SWIDTH 573 0
DWIDTH 9 0
BBX 7 7 1 0
BITMAP
3A
44
8A
92
A2
44
B8
ENDCHAR

STARTCHAR ugrave
ENCODING 249
SWIDTH 563 0
DWIDTH 8 0
BBX 7 11 1 0
BITMAP
40
20
10
00
CC
44
44
44
44
4C
36
ENDCHAR

STARTCHAR uacute
ENCODING 250
SWIDTH 563 0
DWIDTH 8 0
BBX 7 11 1 0
BITMAP
08
10
20
00
CC
44
44
44
44
4C
36
ENDCHAR

STARTCHAR ucircumflex
ENCODING 251
SWIDTH 563 0
DWIDTH 8 0
BBX 7 11 1 0
BITMAP
10
28
44
00
CC
44
44
44
44
4C
36
ENDCHAR

STARTCHAR udieresis
ENCODING 252
SWIDTH 563 0
DWIDTH 8 0
BBX 7 10 1 0
BITMAP
48
48
00
CC
44
44
44
44
4C
36
ENDCHAR

STARTCHAR yacute
ENCODING 253
SWIDTH 563 0
DWIDTH 8 0
BBX 7 14 0 -3
BITMAP
04
08
10
00
EE
44
44
28
28
10
10
10
20
E0
ENDCHAR

STARTCHAR thorn
ENCODING 254
SWIDTH 625 0
DWIDTH 9 0
BBX 7 13 1 -3
BITMAP
C0
40
40
58
64
42
42
42
64
58
40
40
E0
ENDCHAR

STARTCHAR ydieresis
ENCODING 255
SWIDTH 563 0
DWIDTH 8 0
BBX 7 13 0 -3
BITMAP
24
24
00
EE
44
44
28
28
10
10
10
20
E0
ENDCHAR
ENDFONT
